<svg xmlns="http://www.w3.org/2000/svg" version="1.1" xmlns:xlink="http://www.w3.org/1999/xlink" xmlns:svgjs="http://svgjs.dev/svgjs" width="1440" height="560" preserveAspectRatio="none" viewBox="0 0 1440 560"><g mask="url(&quot;#SvgjsMask1029&quot;)" fill="none"><rect width="1440" height="560" x="0" y="0" fill="rgba(186, 223, 231, 1)"></rect><path d="M1536 560L0 560 L0 400.83Q52.83 381.66, 72 434.49Q113.6 404.09, 144 445.68Q153.3 382.98, 216 392.27Q286.77 343.04, 336 413.82Q388.84 394.66, 408 447.5Q433.79 401.29, 480 427.09Q524.71 351.8, 600 396.51Q641.92 366.44, 672 408.36Q743.88 360.25, 792 432.13Q858.51 378.64, 912 445.15Q935.75 396.9, 984 420.66Q1030.84 347.5, 1104 394.33Q1184.3 354.63, 1224 434.92Q1289.96 380.88, 1344 446.85Q1353.77 384.62, 1416 394.39Q1489.39 347.78, 1536 421.18z" fill="rgba(255, 255, 255, 1)"></path><path d="M1464 560L0 560 L0 473.26Q44.99 398.25, 120 443.23Q185.71 388.94, 240 454.65Q308.37 403.02, 360 471.39Q430.63 422.01, 480 492.64Q494.07 434.71, 552 448.78Q618.92 395.69, 672 462.61Q717.68 436.3, 744 481.98Q765.21 431.19, 816 452.39Q881.81 398.19, 936 464Q981.54 437.54, 1008 483.09Q1023.31 426.4, 1080 441.71Q1124.21 413.92, 1152 458.13Q1227.32 413.45, 1272 488.77Q1284.26 429.03, 1344 441.3Q1415.32 392.62, 1464 463.93z" fill="rgba(255, 255, 255, 1)"></path><path d="M1464 560L0 560 L0 514.52Q48.25 442.77, 120 491.02Q200.92 451.94, 240 532.85Q293.29 466.14, 360 519.43Q379.37 466.8, 432 486.17Q513.9 448.07, 552 529.97Q597.33 455.3, 672 500.63Q721.27 429.9, 792 479.17Q871.88 439.05, 912 518.93Q979.49 466.42, 1032 533.91Q1046.85 476.76, 1104 491.61Q1171.24 438.86, 1224 506.1Q1295.18 457.29, 1344 528.47Q1378.48 442.95, 1464 477.43z" fill="rgba(255, 255, 255, 1)"></path><path d="M1488 560L0 560 L0 554.22Q32.75 514.97, 72 547.72Q117.62 521.34, 144 566.95Q184.37 487.32, 264 527.68Q332.46 476.14, 384 544.6Q453.67 494.27, 504 563.94Q542.33 482.27, 624 520.6Q694.8 471.4, 744 542.21Q810.46 488.67, 864 555.14Q912.45 483.59, 984 532.03Q1038.38 466.41, 1104 520.79Q1181.68 478.47, 1224 556.16Q1277.35 489.51, 1344 542.86Q1393.28 520.13, 1416 569.41Q1444.53 525.93, 1488 554.46z" fill="rgba(255, 255, 255, 1)"></path></g><defs><mask id="SvgjsMask1029"><rect width="1440" height="560" fill="#ffffff"></rect></mask></defs></svg>